<svg width="246" height="245" viewBox="0 0 246 245" fill="none" xmlns="http://www.w3.org/2000/svg">
<path d="M122.829 0.648987C55.4409 0.648987 0.652672 55.4372 0.652672 122.825C0.652672 190.212 55.4409 245.001 122.829 245.001C190.216 245.001 245.004 190.212 245.004 122.825C245.004 55.4372 190.216 0.648987 122.829 0.648987Z" fill="#333333"/>
<path fill-rule="evenodd" clip-rule="evenodd" d="M164.815 140.608C164.457 140.094 164.095 139.59 163.736 139.089C160.813 135.015 158.028 131.132 158.028 123.349V94.3351C158.028 93.3265 158.034 92.3246 158.039 91.3305C158.103 80.2061 158.161 70.0551 150.138 62.2894C143.258 55.4289 131.83 53.0083 123.089 53.0083C105.995 53.0083 86.9255 59.6199 82.9265 81.5285C82.5032 83.8556 84.1332 85.0738 85.6108 85.4162L103.017 87.3696C104.647 87.2838 105.824 85.6224 106.14 83.949C107.632 76.3996 113.729 72.7728 120.579 72.7728C124.274 72.7728 128.469 74.1737 130.656 77.6099C132.911 81.036 132.875 85.6109 132.843 89.7018C132.839 90.1784 132.836 90.6483 132.836 91.1092V93.5412C131.22 93.7284 129.528 93.9058 127.785 94.0886C118.292 95.0838 107.293 96.237 99.0556 99.9816C87.8092 105.033 79.9117 115.31 79.9117 130.416C79.9117 149.776 91.6633 159.454 106.793 159.454C119.562 159.454 126.55 156.329 136.4 145.916C136.892 146.655 137.335 147.337 137.751 147.979C140.101 151.602 141.634 153.967 146.696 158.333C148.033 159.073 149.801 159.045 150.985 157.933C154.571 154.625 161.084 148.757 164.756 145.566C166.223 144.317 165.963 142.297 164.815 140.608ZM129.476 132.242C126.624 137.495 122.083 140.709 117.037 140.709C110.157 140.709 106.117 135.261 106.117 127.202C106.117 111.337 119.848 108.457 132.832 108.457C132.832 109.406 132.841 110.361 132.849 111.318C132.913 118.5 132.978 125.824 129.476 132.242Z" fill="white"/>
<path d="M186.283 172.268C169.089 185.564 144.155 192.638 122.681 192.638C92.5969 192.638 65.498 180.983 44.9927 161.581C43.3843 160.055 44.8199 157.972 46.7523 159.156C68.8788 172.651 96.2366 180.774 124.492 180.774C143.555 180.774 164.507 176.631 183.785 168.056C186.693 166.767 189.13 170.069 186.283 172.268Z" fill="#FFB200"/>
<path d="M173.36 163.008C178.896 162.307 191.24 160.756 193.438 163.704C195.638 166.649 191.017 178.761 188.934 184.22L188.919 184.26C188.292 185.907 189.64 186.564 191.059 185.316C200.286 177.232 202.67 160.286 200.78 157.83C198.904 155.408 182.774 153.311 172.93 160.557C171.417 161.681 171.676 163.213 173.36 163.008Z" fill="#FFB200"/>
</svg>
