<svg width="244" height="244" viewBox="0 0 244 244" fill="none" xmlns="http://www.w3.org/2000/svg">
<circle cx="122" cy="122" r="122" fill="#42B682"/>
<g clip-path="url(#clip0_44_594)">
<path d="M167.602 149.747C167.602 154.163 167.378 158.594 167.659 162.989C167.976 168.032 165.498 171.555 162.242 174.948C158.308 179.084 153.747 181.375 147.89 180.95C142.984 180.597 138.049 181.303 133.38 178.651C129.835 176.641 127.141 173.306 127.271 169.285C127.415 164.963 130.462 163.248 133.971 165.683C138.827 169.033 143.697 171.713 149.987 170.236C153.589 169.393 157.4 164.977 156.86 161.288C156.708 160.87 156.451 160.497 156.115 160.206C155.778 159.914 155.372 159.714 154.936 159.624C149.173 160.136 144.655 158.025 141.593 153.248C140.088 150.892 138.394 148.205 138.229 145.554C137.991 141.735 136.55 137.492 139.605 133.925C139.662 133.853 138.884 132.657 138.387 132.571C130.988 131.267 130.052 130.186 129.302 122.859C128.91 118.737 128.243 114.645 127.307 110.611C127.112 109.812 124.98 109.171 123.668 108.998C119.49 108.371 117.055 104.675 119.439 101.872C120.707 100.395 122.926 99.4372 124.886 98.9544C126.846 98.4717 127.163 97.7153 127.544 95.9573C128.603 91.1015 130.073 86.332 131.37 81.5482C131.73 80.201 131.759 78.6664 132.415 77.5209C133.712 75.2442 136.096 73.9546 138.315 75.4316C140.162 76.7392 141.444 78.6985 141.903 80.9142C142.472 84.6462 142.198 88.5366 142.033 92.3479C141.91 95.2297 142.559 96.9083 145.902 96.6058C148.863 96.3392 151.471 97.1461 153.474 99.6173C153.935 100.194 155.131 100.165 155.995 100.417C156.247 99.6672 156.428 98.8953 156.536 98.1115C156.694 94.4156 156.492 90.6836 156.989 87.0381C157.345 84.3046 158.242 81.6694 159.626 79.286C160.304 78.1693 163.005 77.2327 164.158 77.7154C165.599 78.3278 167.27 80.4315 167.35 81.9661C167.717 89.5885 167.868 97.247 167.523 104.869C167.431 108.6 168.433 112.277 170.404 115.446C171.845 117.96 171.053 118.983 169.389 120.424C167.436 122.11 165.577 122.016 163.308 120.907C157.919 118.27 156.262 113.868 156.572 108.256C156.622 107.369 155.851 106.447 155.505 105.547C154.691 105.878 153.899 106.267 153.077 106.548C150.671 107.398 148.272 108.832 145.837 108.897C142.674 108.969 142.033 110.122 142.177 112.924C142.393 117.088 142.422 121.281 142.242 125.446C142.17 127.182 141.24 128.861 140.945 130.611C140.88 131.008 141.766 131.908 142.328 132.016C144.187 132.362 146.651 131.44 147.112 134.408C147.263 135.33 147.033 136.317 147.191 137.247C147.717 140.446 147.832 143.853 149.093 146.75C149.351 147.29 149.716 147.773 150.167 148.167C150.618 148.561 151.145 148.859 151.715 149.042C152.285 149.225 152.887 149.289 153.483 149.231C154.079 149.172 154.657 148.992 155.181 148.702C156.853 147.672 158.063 145.431 158.783 143.471C159.223 142.254 158.56 140.446 157.955 139.105C156.442 135.77 156.579 132.463 159.309 130.071C160.513 129.019 162.912 128.219 164.23 128.724C165.056 129.135 165.775 129.731 166.333 130.466C166.89 131.2 167.27 132.054 167.443 132.96C167.825 138.544 167.595 144.17 167.595 149.775L167.602 149.747Z" fill="white"/>
<path d="M72.8977 102.809C72.8977 99.8262 72.4222 96.7498 73.013 93.8896C73.8508 89.993 75.1194 86.2017 76.7954 82.5857C77.379 81.2888 79.6772 79.7038 80.8083 79.9488C82.9697 80.4747 85.0662 82.0597 85.3112 84.8335C85.4769 86.7283 85.5777 88.6375 85.7867 90.5323C85.9092 91.6778 85.9884 92.247 87.4581 91.1951C89.4466 89.7542 92.3068 89.4084 94.0071 87.7729C95.745 85.94 96.985 83.693 97.6094 81.2456C98.7981 76.9949 99.1511 72.5065 100.398 68.2774C100.959 66.3826 102.48 64.1852 104.173 63.3423C107.148 61.8509 110.073 64.3653 110.556 68.7024C110.897 72.5053 110.914 76.3304 110.606 80.1361C110.441 82.8378 111.031 84.113 114.007 84.6245C116.846 85.0998 119.543 86.2079 121.896 87.8666C123.07 88.7167 123.675 91.4689 123.272 93.0323C122.905 94.4732 120.995 95.8276 119.454 96.5049C117.912 97.1821 116.154 96.9516 114.497 96.8651C111.68 96.721 110.642 97.9818 110.714 100.705C110.851 105.712 110.859 110.719 110.83 115.734C110.83 118.659 108.82 121.274 106.55 121.613C104.547 121.915 101.125 119.206 99.9653 117.434C96.8385 112.672 98.1137 107.398 97.739 102.305C97.4581 98.4789 96.2981 97.1821 92.5878 96.8291C91.3198 96.7138 90.0734 95.9717 88.899 95.3882C87.2636 94.538 86.0749 94.5236 86.0172 96.721C85.9596 98.623 85.7218 100.647 86.255 102.405C87.8544 107.722 86.9754 112.852 85.0662 117.73C84.425 119.351 81.8818 121.411 80.4409 121.245C78.5029 121.029 76.4496 119.127 75.0447 117.449C72.4726 114.387 72.732 110.489 72.8257 106.735C72.8257 105.424 72.8257 104.113 72.8257 102.802L72.8977 102.809Z" fill="white"/>
<path d="M112.833 125.907C120.758 125.136 126.521 128.673 130.916 134.833C131.216 135.172 131.411 135.589 131.478 136.036C131.478 142.679 132.069 149.386 131.312 155.943C130.642 161.706 122.429 167.88 116.406 168.27C113.668 168.442 110.916 168.428 108.171 168.327C101.939 168.089 95.0229 162.607 93.6325 156.562C92.7103 152.578 91.6656 148.464 91.7377 144.43C91.8673 136.814 95.7938 131.094 102.739 127.917C105.837 126.476 109.36 126.022 112.689 125.114L112.833 125.907ZM112.17 157.729C115.484 158.551 118.178 156.713 120.325 153.731C121.81 151.663 121.327 149.581 119.036 149.228C117.112 148.932 116.406 147.787 116.709 146.389C116.975 145.114 117.933 143.234 118.913 143.003C121.918 142.283 121.493 140.51 120.592 138.781C119.389 136.454 111.745 134.113 109.353 135.28C107.552 136.065 105.907 137.168 104.497 138.536C101.471 141.793 101.903 145.95 102.429 149.891C103.078 154.768 106.687 157.664 112.17 157.729Z" fill="white"/>
<path d="M193.855 119.819C184.1 119.704 178.099 115.453 174.403 108.032C170.476 100.186 173.574 86.4977 180.275 80.8133C185.044 76.7571 194.684 76.4906 198.79 78.8753C199.893 79.5237 201.204 79.8263 202.277 80.5035C207.609 83.8464 209.367 89.2931 207.537 96.4688C206.456 100.72 200.808 105.042 195.793 105.316C193.408 105.453 191.016 105.316 188.632 105.352C187.984 105.458 187.354 105.652 186.759 105.928C187.104 106.49 187.328 107.218 187.825 107.571C188.711 108.205 189.792 109.077 190.707 109.012C193.848 108.825 196.96 107.967 200.073 107.975C201.838 107.975 204.395 108.695 205.116 109.941C205.836 111.188 205.656 114.351 204.597 115.395C201.463 118.508 197.45 120.388 193.855 119.819ZM189.453 96.6201C190.624 96.5685 191.784 96.3799 192.911 96.0582C193.632 95.7988 194.576 94.7398 194.496 94.1634C194.266 92.5208 191.434 91.051 194.345 89.2715C194.006 88.9833 193.704 88.4862 193.336 88.443C191.947 88.1674 190.525 88.0946 189.115 88.2268C186.586 88.6591 184.071 91.8291 184.208 93.9328C184.468 97.319 187.162 96.2023 189.453 96.6201Z" fill="white"/>
<path d="M87.6455 145.806C87.6455 150.33 87.8976 154.876 87.5806 159.379C87.1484 165.611 83.6325 169.638 78.0346 172.513C71.3704 175.935 64.4972 175.323 57.7826 174.033C52.4008 172.996 47.6962 169.811 46.3201 163.947C45.9959 162.563 47.5449 160.539 48.6184 159.084C49.8071 157.463 51.5002 157.232 53.2869 158.522C55.0146 159.836 56.8242 161.039 58.7048 162.124C64.6845 165.366 69.1586 164.804 73.5317 159.775C76.6441 156.173 76.6225 151.793 75.8732 147.196C74.8142 140.712 73.7911 134.12 76.6369 127.65C77.8473 124.905 79.9582 125.957 81.7666 125.827C83.4524 125.705 85.0735 125.979 85.4409 128.248C86.3703 134.055 87.4221 139.848 88.4236 145.647L87.6455 145.806Z" fill="white"/>
<path d="M52.4944 123.673C45.1962 122.398 36.8461 118.803 36.6444 108.695C36.5867 106.245 35.4124 103.796 35.5204 101.382C35.8735 93.2052 36.457 85.0352 37.2207 76.8868C37.4566 74.9018 38.2482 73.0238 39.5046 71.469C40.3619 70.4099 42.5665 69.4301 43.6544 69.8264C45.1602 70.3739 46.3273 72.139 47.3359 73.5943C47.8114 74.3148 47.6025 75.4459 47.6529 76.3969C48.1717 85.1721 48.6976 93.9472 49.1803 102.722C49.5694 109.646 49.8143 109.783 56.7379 109.351C60.6788 109.113 64.6629 108.407 68.366 111.015C70.3329 112.413 71.7666 115.885 70.0807 117.499C67.9986 119.531 65.8589 121.591 62.4943 121.822C59.1298 122.052 55.8229 123.039 52.4944 123.673Z" fill="white"/>
<path d="M186.571 127.881C189.504 127.643 193.055 128.299 195.368 131.548C196.269 132.809 197.104 134.855 196.679 136.094C196.297 137.203 194.208 138.068 192.731 138.363C191.031 138.695 189.172 138.205 187.385 138.234C185.282 138.234 182.969 138.616 182.638 141.072C182.328 143.421 184.302 144.221 186.334 144.941C190.21 146.31 194.107 148.126 196.024 151.901C197.94 155.676 197.335 159.783 194.64 163.154C191.125 167.556 186.715 170.539 180.736 170.424C176.081 170.337 174.021 169.163 173.754 166.144C173.459 162.873 175.707 160.546 179.857 159.783C180.901 159.588 182.09 159.559 182.919 159.012C183.257 158.719 183.533 158.36 183.73 157.958C183.927 157.555 184.041 157.117 184.064 156.67C184.064 156.288 183.041 155.669 182.378 155.424C173.473 152.102 170.087 146.663 171.939 137.333C173.142 131.44 179.043 127.744 186.571 127.881Z" fill="white"/>
<path d="M87.8688 69.2284C87.8039 72.9459 84.5547 77.1534 81.9034 77.8739C78.4164 78.8537 76.6152 76.5699 74.8934 74.1707C74.5788 73.8356 74.3339 73.4413 74.1729 73.0108C73.8271 71.2024 73.5749 69.4085 73.2939 67.5569C75.1743 67.7875 77.0547 68.0613 78.9423 68.2125C79.7208 68.2864 80.506 68.1855 81.2406 67.9172C82.6815 67.3336 83.7838 65.201 85.7002 66.8149C86.4886 67.558 87.2139 68.3653 87.8688 69.2284Z" fill="white"/>
</g>
<defs>
<clipPath id="clip0_44_594">
<rect width="172.708" height="118.09" fill="white" transform="translate(35.5061 62.91)"/>
</clipPath>
</defs>
</svg>
