<svg width="36" height="12" viewBox="0 0 36 12" fill="none" xmlns="http://www.w3.org/2000/svg">
<path d="M10.252 10.4957C10.1821 10.499 10.1135 10.4759 10.0602 10.4307C10.0147 10.3765 9.99358 10.3059 10.0017 10.2357V3.60575C9.99358 3.53555 10.0147 3.46502 10.0602 3.41075C10.1142 3.3698 10.1811 3.3503 10.2487 3.3555H10.9702C11.1067 3.34185 11.2296 3.43772 11.2497 3.57325L11.3212 3.83325C11.5289 3.63272 11.7743 3.47477 12.0427 3.3685C12.3173 3.25735 12.6108 3.19982 12.9072 3.1995C13.4981 3.18 14.0629 3.44292 14.4282 3.908C14.8306 4.46245 15.0304 5.13812 14.9937 5.82225C15.0048 6.31885 14.9095 6.81187 14.7142 7.2685C14.553 7.64875 14.2911 7.97797 13.957 8.22075C13.6339 8.4411 13.2494 8.55485 12.8585 8.54575C12.5929 8.54705 12.329 8.50317 12.0785 8.41575C11.848 8.3384 11.6352 8.21685 11.4512 8.05825V10.2422C11.4584 10.3118 11.4389 10.3817 11.396 10.4372C11.3404 10.4801 11.2705 10.4996 11.201 10.4925L10.252 10.4957ZM12.4392 7.45375C12.7603 7.47682 13.071 7.33317 13.2615 7.0735C13.4639 6.71015 13.5556 6.29545 13.5247 5.88075C13.5559 5.46215 13.4656 5.04355 13.2647 4.675C13.0736 4.41272 12.7597 4.26875 12.436 4.29475C12.0924 4.29507 11.7557 4.38802 11.461 4.5645V7.18075C11.7535 7.36275 12.0915 7.4583 12.436 7.457L12.4392 7.45375Z" fill="#00A8E1"/>
<path d="M16.2285 8.44177C16.1122 8.46354 16 8.38684 15.9783 8.27017C15.9734 8.24417 15.9734 8.21752 15.9783 8.19152V3.60577C15.9701 3.53557 15.9913 3.46504 16.0368 3.41077C16.0907 3.36982 16.1577 3.35032 16.2253 3.35552H16.9435C17.08 3.34187 17.2029 3.43774 17.223 3.57327L17.353 4.10627C17.5665 3.85634 17.8217 3.64509 18.107 3.48227C18.3397 3.36039 18.5984 3.29702 18.861 3.29702H19.0008C19.0713 3.29084 19.1418 3.31034 19.199 3.35227C19.2445 3.40654 19.2656 3.47707 19.2575 3.54727V4.38577C19.263 4.45337 19.2435 4.52032 19.2023 4.57427C19.148 4.61977 19.0775 4.64089 19.0073 4.63277H18.8285C18.7547 4.63277 18.6618 4.63277 18.549 4.63277C18.3612 4.63667 18.174 4.65844 17.99 4.69777C17.7983 4.73319 17.6111 4.78877 17.431 4.86352V8.19477C17.4362 8.26237 17.4167 8.32932 17.3758 8.38327C17.3215 8.42877 17.251 8.44989 17.1808 8.44177H16.2285Z" fill="#00A8E1"/>
<path d="M20.6969 2.56252C20.4752 2.57357 20.2578 2.49914 20.0891 2.35452C19.9325 2.20794 19.8483 1.99994 19.8584 1.78577C19.8473 1.57029 19.9315 1.36099 20.0891 1.21377C20.4453 0.928744 20.9517 0.928744 21.3079 1.21377C21.4645 1.36034 21.5487 1.56834 21.5386 1.78252C21.5487 1.99669 21.4645 2.20469 21.3079 2.35127C21.1389 2.49784 20.9202 2.57357 20.6969 2.56252ZM20.2191 8.44502C20.1028 8.46679 19.9907 8.39009 19.9689 8.27342C19.964 8.24742 19.964 8.22077 19.9689 8.19477V3.60577C19.9608 3.53557 19.9819 3.46504 20.0274 3.41077C20.0813 3.36982 20.1483 3.35032 20.2159 3.35552H21.1746C21.2442 3.34837 21.3141 3.36787 21.3696 3.41077C21.4125 3.46634 21.432 3.53622 21.4249 3.60577V8.19477C21.4304 8.26237 21.4109 8.32932 21.3696 8.38327C21.3154 8.42877 21.2448 8.44989 21.1746 8.44177L20.2191 8.44502Z" fill="#00A8E1"/>
<path d="M22.9111 8.44175C22.7948 8.46352 22.6827 8.38682 22.6609 8.27015C22.656 8.24415 22.656 8.2175 22.6609 8.1915V3.60575C22.6528 3.53555 22.6739 3.46502 22.7194 3.41075C22.7733 3.3698 22.8403 3.3503 22.9079 3.3555H23.6261C23.7626 3.34185 23.8855 3.43772 23.9056 3.57325L23.9869 3.843C24.2826 3.63922 24.6024 3.47347 24.9391 3.349C25.217 3.25215 25.5092 3.20177 25.8036 3.1995C26.3158 3.15562 26.8079 3.40815 27.0711 3.8495C27.3679 3.6454 27.6903 3.4816 28.0299 3.362C28.3295 3.26222 28.6435 3.21185 28.9594 3.2125C29.3585 3.18845 29.7498 3.3295 30.0416 3.6025C30.3107 3.8976 30.4492 4.28922 30.4251 4.688V8.19475C30.4303 8.26235 30.4108 8.3293 30.3699 8.38325C30.3156 8.42875 30.2451 8.44987 30.1749 8.44175H29.2291C29.1128 8.46352 29.0007 8.38682 28.9789 8.27015C28.974 8.24415 28.974 8.2175 28.9789 8.1915V4.9935C28.9789 4.54077 28.7764 4.31425 28.3711 4.31425C27.9935 4.31847 27.6214 4.40752 27.2824 4.57425V8.19475C27.2879 8.26235 27.2684 8.3293 27.2271 8.38325C27.1729 8.42875 27.1023 8.44987 27.0321 8.44175H26.0766C25.9603 8.46352 25.8482 8.38682 25.8264 8.27015C25.8215 8.24415 25.8215 8.2175 25.8264 8.1915V4.9935C25.8264 4.54077 25.6239 4.31425 25.2186 4.31425C24.8364 4.31652 24.4601 4.40915 24.1201 4.584V8.1915C24.1253 8.2591 24.1058 8.32605 24.0649 8.38C24.0106 8.4255 23.9401 8.44662 23.8699 8.4385L22.9111 8.44175Z" fill="#00A8E1"/>
<path d="M33.9024 8.59123C33.2021 8.63705 32.5141 8.39135 32.0012 7.91198C31.5322 7.37508 31.2979 6.67275 31.3512 5.96198C31.3044 5.2252 31.5417 4.49818 32.0142 3.93073C32.5066 3.42243 33.1959 3.153 33.9024 3.19298C34.425 3.16178 34.9412 3.32135 35.3552 3.64148C35.7056 3.94048 35.8986 4.3841 35.8785 4.84398C35.9022 5.2941 35.6874 5.72375 35.313 5.97498C34.8089 6.26293 34.2314 6.39618 33.6522 6.35848C33.324 6.36238 32.9964 6.32533 32.6772 6.24798C32.6792 6.60743 32.8241 6.95128 33.0802 7.20348C33.3834 7.41863 33.7526 7.521 34.1235 7.49273C34.3048 7.49273 34.4861 7.4807 34.6662 7.45698C34.9138 7.41863 35.1589 7.3663 35.4007 7.30098H35.4592H35.508C35.6207 7.30098 35.6769 7.378 35.6769 7.53173V7.98998C35.6831 8.06765 35.6675 8.14533 35.6314 8.21423C35.5853 8.2685 35.5242 8.30783 35.4559 8.32798C34.9587 8.51095 34.4322 8.60033 33.9024 8.59123ZM33.5774 5.46148C33.8332 5.48 34.089 5.42605 34.3152 5.30548C34.4706 5.1992 34.5583 5.01883 34.546 4.83098C34.546 4.4127 34.2967 4.20373 33.7984 4.20373C33.1592 4.20373 32.79 4.596 32.6902 5.38023C32.9804 5.4358 33.2755 5.4631 33.571 5.46148H33.5774Z" fill="#00A8E1"/>
<path d="M8 3L3.875 9L2 6.27273" stroke="#FFB200" stroke-width="1.5" stroke-linecap="round" stroke-linejoin="round"/>
</svg>
