<svg width="65" height="20" viewBox="0 0 65 20" fill="none" xmlns="http://www.w3.org/2000/svg">
<path fill-rule="evenodd" clip-rule="evenodd" d="M40.3228 15.7352C36.5596 18.5177 31.0859 20.0002 26.3648 20.0002C19.7508 20.0002 13.821 17.5598 9.30516 13.5001C8.96305 13.1808 9.25955 12.7475 9.69288 12.9984C14.5508 15.8265 20.549 17.5142 26.7526 17.5142C30.9262 17.5142 35.5333 16.6475 39.7754 14.8458C40.414 14.5949 40.9385 15.2791 40.3228 15.7352Z" fill="#FF9900"/>
<path fill-rule="evenodd" clip-rule="evenodd" d="M41.8965 13.9335C41.4176 13.3177 38.7035 13.637 37.4948 13.7967C37.1298 13.8423 37.0614 13.523 37.4035 13.2949C39.5702 11.7669 43.1053 12.223 43.5158 12.7248C43.9263 13.2265 43.4018 16.7844 41.372 18.4721C41.0527 18.723 40.7562 18.5862 40.893 18.2441C41.3491 17.1037 42.3755 14.5721 41.8965 13.9335Z" fill="#FF9900"/>
<path fill-rule="evenodd" clip-rule="evenodd" d="M37.5632 2.5755V1.09304C37.5632 0.864973 37.7229 0.72813 37.9281 0.72813L44.5422 0.72813C44.7474 0.72813 44.9299 0.88778 44.9299 1.09304V2.34743C44.9299 2.5527 44.7474 2.82638 44.4282 3.28252L41.0071 8.16323C42.2843 8.14043 43.6299 8.32288 44.7703 8.96148C45.0211 9.09832 45.0896 9.32639 45.1124 9.53166V11.1053C45.1124 11.3334 44.8843 11.5843 44.6334 11.4474C42.6036 10.3755 39.8895 10.2615 37.6545 11.4703C37.4264 11.5843 37.1755 11.3562 37.1755 11.1281V9.62288C37.1755 9.39481 37.1755 8.98429 37.4264 8.61937L41.3948 2.94042L37.9509 2.94042C37.7457 2.94042 37.5632 2.78077 37.5632 2.5755ZM13.4562 11.7667H11.4491C11.2667 11.7439 11.107 11.6071 11.0842 11.4246L11.0842 1.11585C11.0842 0.910589 11.2667 0.750938 11.472 0.750938L13.3421 0.750938C13.5474 0.750938 13.6842 0.910587 13.707 1.09304V2.43866H13.7527C14.2316 1.13866 15.1667 0.522867 16.3983 0.522867C17.6527 0.522867 18.4509 1.13866 18.9983 2.43866C19.4772 1.13866 20.5948 0.522867 21.7807 0.522867C22.6246 0.522867 23.5369 0.864973 24.1071 1.66322C24.7457 2.52989 24.6088 3.78428 24.6088 4.90183V11.4246C24.6088 11.6299 24.4264 11.7896 24.2211 11.7896H22.2369C22.0316 11.7667 21.872 11.6071 21.872 11.4246V5.95094C21.872 5.51761 21.9176 4.42287 21.8264 4.01234C21.6667 3.32813 21.2334 3.12287 20.6404 3.12287C20.1614 3.12287 19.6369 3.44217 19.4316 3.96673C19.2264 4.4913 19.2492 5.35796 19.2492 5.95094V11.4246C19.2492 11.6299 19.0667 11.7896 18.8614 11.7896H16.8544C16.6492 11.7667 16.4895 11.6071 16.4895 11.4246V5.95094C16.4895 4.81059 16.672 3.10006 15.2579 3.10006C13.8211 3.10006 13.8667 4.74217 13.8667 5.95094L13.8667 11.4246C13.8439 11.6071 13.6842 11.7667 13.4562 11.7667ZM50.6317 0.522867C53.6194 0.522867 55.2387 3.07726 55.2387 6.33867C55.2387 9.48604 53.4597 11.9948 50.6317 11.9948C47.7124 11.9948 46.1159 9.44043 46.1159 6.24744C46.0931 3.03165 47.7124 0.522867 50.6317 0.522867ZM50.6317 2.64392C49.1492 2.64392 49.058 4.67376 49.058 5.92814C49.058 7.18253 49.0352 9.87376 50.6089 9.87376C52.1597 9.87376 52.251 7.70709 52.251 6.38428C52.251 5.51762 52.2054 4.46849 51.9545 3.64744C51.7264 2.91761 51.2703 2.64392 50.6317 2.64392ZM59.0931 11.7667H57.0861C56.8808 11.7439 56.7212 11.5843 56.7212 11.4018V1.07024C56.744 0.887779 56.9036 0.72813 57.1089 0.72813L58.9791 0.72813C59.1615 0.72813 59.2984 0.864976 59.344 1.02463V2.59831H59.3896C59.9598 1.18427 60.7352 0.522867 62.1264 0.522867C63.0159 0.522867 63.9054 0.842163 64.4756 1.73164C65.0001 2.55269 65.0001 3.94392 65.0001 4.94744V11.4474C64.9773 11.6299 64.8177 11.7667 64.6124 11.7667H62.6054C62.4229 11.7439 62.2633 11.6071 62.2405 11.4474V5.83691C62.2405 4.69656 62.3773 3.05445 60.9861 3.05445C60.5071 3.05445 60.051 3.37375 59.8229 3.87551C59.5492 4.51411 59.5036 5.12989 59.5036 5.83691V11.4018C59.4808 11.6071 59.2984 11.7667 59.0931 11.7667ZM32.2948 6.84043C32.2948 7.61587 32.3176 8.27727 31.9299 8.98429C31.6106 9.55446 31.1088 9.89657 30.5387 9.89657C29.7632 9.89657 29.3071 9.30359 29.3071 8.43692C29.3071 6.72639 30.8351 6.40709 32.2948 6.40709V6.84043ZM34.3246 11.7439C34.1878 11.858 34.0053 11.8808 33.8457 11.7896C33.1843 11.2422 33.0474 10.9685 32.6825 10.4439C31.5878 11.5615 30.7895 11.9036 29.3755 11.9036C27.6878 11.9036 26.365 10.8545 26.365 8.77903C26.365 7.13692 27.2544 6.04217 28.5088 5.4948C29.6036 5.01586 31.1316 4.92463 32.2948 4.78779V4.53691C32.2948 4.05796 32.3404 3.48779 32.0439 3.07726C31.793 2.71235 31.3369 2.55269 30.9264 2.55269C30.1509 2.55269 29.4667 2.94042 29.3071 3.76147C29.2615 3.94393 29.1474 4.12638 28.965 4.12638L27.0264 3.92112C26.8667 3.8755 26.6843 3.76147 26.7299 3.51059C27.186 1.13866 29.3071 0.431641 31.2229 0.431641C32.2036 0.431641 33.4808 0.682517 34.2562 1.43515C35.2369 2.34743 35.1457 3.57902 35.1457 4.90183V8.02639C35.1457 8.96148 35.5334 9.37201 35.8983 9.89657C36.0352 10.079 36.058 10.3071 35.8983 10.4211C35.465 10.7632 34.7352 11.4018 34.3246 11.7439ZM5.95264 6.84043C5.95264 7.61587 5.97545 8.27727 5.58773 8.98429C5.26843 9.55446 4.76667 9.89657 4.1965 9.89657C3.42106 9.89657 2.96492 9.30359 2.96492 8.43692C2.96492 6.72639 4.49299 6.40709 5.95264 6.40709V6.84043ZM7.95966 11.7439C7.82282 11.858 7.64037 11.8808 7.48072 11.7896C6.81931 11.2422 6.68247 10.9685 6.31755 10.4439C5.22282 11.5615 4.42457 11.9036 3.01053 11.9036C1.32281 11.9036 0 10.8545 0 8.77903C0 7.13692 0.889474 6.04217 2.14386 5.4948C3.2386 5.01586 4.76668 4.92463 5.92984 4.78779V4.53691C5.92984 4.05796 5.97545 3.48779 5.67896 3.07726C5.42808 2.71235 4.97194 2.55269 4.56141 2.55269C3.78597 2.55269 3.10176 2.94042 2.94211 3.76147C2.8965 3.94393 2.78246 4.12638 2.6 4.12638L0.661403 3.92112C0.501754 3.8755 0.3193 3.76147 0.364914 3.51059C0.821056 1.13866 2.94211 0.431641 4.8579 0.431641C5.83861 0.431641 7.1158 0.682517 7.89124 1.43515C8.87195 2.34743 8.78072 3.57902 8.78072 4.90183L8.78072 8.02639C8.78072 8.96148 9.16844 9.37201 9.53335 9.89657C9.67019 10.079 9.693 10.3071 9.53335 10.4211C9.10002 10.7632 8.37019 11.4018 7.95966 11.7439Z" fill="black"/>
</svg>
