<svg width="18" height="12" viewBox="0 0 18 12" fill="none" xmlns="http://www.w3.org/2000/svg">
<path d="M17.3437 1.87364C17.1479 1.13727 16.5684 0.556364 15.8312 0.357273C14.4983 1.30047e-07 9.1501 0 9.1501 0C9.1501 0 3.80465 1.30047e-07 2.46897 0.357273C1.73448 0.553637 1.15505 1.13455 0.956461 1.87364C0.600098 3.21 0.600098 6 0.600098 6C0.600098 6 0.600098 8.79 0.956461 10.1264C1.15233 10.8627 1.73176 11.4436 2.46897 11.6427C3.80465 12 9.1501 12 9.1501 12C9.1501 12 14.4983 12 15.8312 11.6427C16.5657 11.4464 17.1452 10.8655 17.3437 10.1264C17.7001 8.79 17.7001 6 17.7001 6C17.7001 6 17.7001 3.21 17.3437 1.87364Z" fill="#FF3000"/>
<path d="M7.44173 8.57182L11.884 6L7.44173 3.42818V8.57182Z" fill="white"/>
</svg>
